<?xml version="1.0" encoding="UTF-8" standalone="no"?>
<!-- This is a Stata 19.5 generated SVG file (http://www.stata.com) -->

<svg version="1.1" width="7.500in" height="4.500in" viewBox="0 0 5400 3240" xmlns="http://www.w3.org/2000/svg" xmlns:xlink="http://www.w3.org/1999/xlink">
	<desc>Stata Graph - Graph</desc>
	<rect x="0" y="0" width="5400" height="3240" style="fill:#FFFFFF;stroke:none"/>
	<rect x="0.00" y="0.00" width="5400.00" height="3240.00" style="fill:#FFFFFF"/>
	<rect x="3.24" y="3.24" width="5393.52" height="3233.52" style="fill:none;stroke:#FFFFFF;stroke-width:6.48"/>
	<rect x="590.63" y="113.40" width="4695.98" height="2653.26" style="fill:#FFFFFF"/>
	<rect x="593.87" y="116.64" width="4689.50" height="2646.78" style="fill:none;stroke:#FFFFFF;stroke-width:6.48"/>
	<line x1="590.63" y1="2695.28" x2="655.43" y2="2695.28" style="stroke:#F0F0F0;stroke-width:9.72"/>
	<line x1="687.83" y1="2695.28" x2="752.63" y2="2695.28" style="stroke:#F0F0F0;stroke-width:9.72"/>
	<line x1="785.03" y1="2695.28" x2="849.83" y2="2695.28" style="stroke:#F0F0F0;stroke-width:9.72"/>
	<line x1="882.23" y1="2695.28" x2="947.03" y2="2695.28" style="stroke:#F0F0F0;stroke-width:9.72"/>
	<line x1="979.43" y1="2695.28" x2="1044.22" y2="2695.28" style="stroke:#F0F0F0;stroke-width:9.72"/>
	<line x1="1076.63" y1="2695.28" x2="1141.43" y2="2695.28" style="stroke:#F0F0F0;stroke-width:9.72"/>
	<line x1="1173.83" y1="2695.28" x2="1238.63" y2="2695.28" style="stroke:#F0F0F0;stroke-width:9.72"/>
	<line x1="1271.03" y1="2695.28" x2="1335.83" y2="2695.28" style="stroke:#F0F0F0;stroke-width:9.72"/>
	<line x1="1368.23" y1="2695.28" x2="1433.03" y2="2695.28" style="stroke:#F0F0F0;stroke-width:9.72"/>
	<line x1="1465.43" y1="2695.28" x2="1530.23" y2="2695.28" style="stroke:#F0F0F0;stroke-width:9.72"/>
	<line x1="1562.63" y1="2695.28" x2="1627.43" y2="2695.28" style="stroke:#F0F0F0;stroke-width:9.72"/>
	<line x1="1659.83" y1="2695.28" x2="1724.63" y2="2695.28" style="stroke:#F0F0F0;stroke-width:9.72"/>
	<line x1="1757.03" y1="2695.28" x2="1821.83" y2="2695.28" style="stroke:#F0F0F0;stroke-width:9.72"/>
	<line x1="1854.23" y1="2695.28" x2="1919.03" y2="2695.28" style="stroke:#F0F0F0;stroke-width:9.72"/>
	<line x1="1951.43" y1="2695.28" x2="2016.23" y2="2695.28" style="stroke:#F0F0F0;stroke-width:9.72"/>
	<line x1="2048.63" y1="2695.28" x2="2113.43" y2="2695.28" style="stroke:#F0F0F0;stroke-width:9.72"/>
	<line x1="2145.82" y1="2695.28" x2="2210.63" y2="2695.28" style="stroke:#F0F0F0;stroke-width:9.72"/>
	<line x1="2243.03" y1="2695.28" x2="2307.82" y2="2695.28" style="stroke:#F0F0F0;stroke-width:9.72"/>
	<line x1="2340.23" y1="2695.28" x2="2405.03" y2="2695.28" style="stroke:#F0F0F0;stroke-width:9.72"/>
	<line x1="2437.43" y1="2695.28" x2="2502.23" y2="2695.28" style="stroke:#F0F0F0;stroke-width:9.72"/>
	<line x1="2534.63" y1="2695.28" x2="2599.43" y2="2695.28" style="stroke:#F0F0F0;stroke-width:9.72"/>
	<line x1="2631.83" y1="2695.28" x2="2696.63" y2="2695.28" style="stroke:#F0F0F0;stroke-width:9.72"/>
	<line x1="2729.03" y1="2695.28" x2="2793.83" y2="2695.28" style="stroke:#F0F0F0;stroke-width:9.72"/>
	<line x1="2826.23" y1="2695.28" x2="2891.03" y2="2695.28" style="stroke:#F0F0F0;stroke-width:9.72"/>
	<line x1="2923.43" y1="2695.28" x2="2988.23" y2="2695.28" style="stroke:#F0F0F0;stroke-width:9.72"/>
	<line x1="3020.63" y1="2695.28" x2="3085.43" y2="2695.28" style="stroke:#F0F0F0;stroke-width:9.72"/>
	<line x1="3117.83" y1="2695.28" x2="3182.63" y2="2695.28" style="stroke:#F0F0F0;stroke-width:9.72"/>
	<line x1="3215.03" y1="2695.28" x2="3279.83" y2="2695.28" style="stroke:#F0F0F0;stroke-width:9.72"/>
	<line x1="3312.23" y1="2695.28" x2="3377.03" y2="2695.28" style="stroke:#F0F0F0;stroke-width:9.72"/>
	<line x1="3409.43" y1="2695.28" x2="3474.23" y2="2695.28" style="stroke:#F0F0F0;stroke-width:9.72"/>
	<line x1="3506.63" y1="2695.28" x2="3571.43" y2="2695.28" style="stroke:#F0F0F0;stroke-width:9.72"/>
	<line x1="3603.83" y1="2695.28" x2="3668.63" y2="2695.28" style="stroke:#F0F0F0;stroke-width:9.72"/>
	<line x1="3701.03" y1="2695.28" x2="3765.83" y2="2695.28" style="stroke:#F0F0F0;stroke-width:9.72"/>
	<line x1="3798.23" y1="2695.28" x2="3863.03" y2="2695.28" style="stroke:#F0F0F0;stroke-width:9.72"/>
	<line x1="3895.43" y1="2695.28" x2="3960.23" y2="2695.28" style="stroke:#F0F0F0;stroke-width:9.72"/>
	<line x1="3992.63" y1="2695.28" x2="4057.43" y2="2695.28" style="stroke:#F0F0F0;stroke-width:9.72"/>
	<line x1="4089.83" y1="2695.28" x2="4154.63" y2="2695.28" style="stroke:#F0F0F0;stroke-width:9.72"/>
	<line x1="4187.02" y1="2695.28" x2="4251.83" y2="2695.28" style="stroke:#F0F0F0;stroke-width:9.72"/>
	<line x1="4284.23" y1="2695.28" x2="4349.02" y2="2695.28" style="stroke:#F0F0F0;stroke-width:9.72"/>
	<line x1="4381.43" y1="2695.28" x2="4446.23" y2="2695.28" style="stroke:#F0F0F0;stroke-width:9.72"/>
	<line x1="4478.63" y1="2695.28" x2="4543.43" y2="2695.28" style="stroke:#F0F0F0;stroke-width:9.72"/>
	<line x1="4575.83" y1="2695.28" x2="4640.63" y2="2695.28" style="stroke:#F0F0F0;stroke-width:9.72"/>
	<line x1="4673.02" y1="2695.28" x2="4737.83" y2="2695.28" style="stroke:#F0F0F0;stroke-width:9.72"/>
	<line x1="4770.23" y1="2695.28" x2="4835.02" y2="2695.28" style="stroke:#F0F0F0;stroke-width:9.72"/>
	<line x1="4867.43" y1="2695.28" x2="4932.23" y2="2695.28" style="stroke:#F0F0F0;stroke-width:9.72"/>
	<line x1="4964.63" y1="2695.28" x2="5029.43" y2="2695.28" style="stroke:#F0F0F0;stroke-width:9.72"/>
	<line x1="5061.83" y1="2695.28" x2="5126.63" y2="2695.28" style="stroke:#F0F0F0;stroke-width:9.72"/>
	<line x1="5159.02" y1="2695.28" x2="5223.83" y2="2695.28" style="stroke:#F0F0F0;stroke-width:9.72"/>
	<line x1="5256.23" y1="2695.28" x2="5286.60" y2="2695.28" style="stroke:#F0F0F0;stroke-width:9.72"/>
	<line x1="590.63" y1="1858.44" x2="655.43" y2="1858.44" style="stroke:#F0F0F0;stroke-width:9.72"/>
	<line x1="687.83" y1="1858.44" x2="752.63" y2="1858.44" style="stroke:#F0F0F0;stroke-width:9.72"/>
	<line x1="785.03" y1="1858.44" x2="849.83" y2="1858.44" style="stroke:#F0F0F0;stroke-width:9.72"/>
	<line x1="882.23" y1="1858.44" x2="947.03" y2="1858.44" style="stroke:#F0F0F0;stroke-width:9.72"/>
	<line x1="979.43" y1="1858.44" x2="1044.22" y2="1858.44" style="stroke:#F0F0F0;stroke-width:9.72"/>
	<line x1="1076.63" y1="1858.44" x2="1141.43" y2="1858.44" style="stroke:#F0F0F0;stroke-width:9.72"/>
	<line x1="1173.83" y1="1858.44" x2="1238.63" y2="1858.44" style="stroke:#F0F0F0;stroke-width:9.72"/>
	<line x1="1271.03" y1="1858.44" x2="1335.83" y2="1858.44" style="stroke:#F0F0F0;stroke-width:9.72"/>
	<line x1="1368.23" y1="1858.44" x2="1433.03" y2="1858.44" style="stroke:#F0F0F0;stroke-width:9.72"/>
	<line x1="1465.43" y1="1858.44" x2="1530.23" y2="1858.44" style="stroke:#F0F0F0;stroke-width:9.72"/>
	<line x1="1562.63" y1="1858.44" x2="1627.43" y2="1858.44" style="stroke:#F0F0F0;stroke-width:9.72"/>
	<line x1="1659.83" y1="1858.44" x2="1724.63" y2="1858.44" style="stroke:#F0F0F0;stroke-width:9.72"/>
	<line x1="1757.03" y1="1858.44" x2="1821.83" y2="1858.44" style="stroke:#F0F0F0;stroke-width:9.72"/>
	<line x1="1854.23" y1="1858.44" x2="1919.03" y2="1858.44" style="stroke:#F0F0F0;stroke-width:9.72"/>
	<line x1="1951.43" y1="1858.44" x2="2016.23" y2="1858.44" style="stroke:#F0F0F0;stroke-width:9.72"/>
	<line x1="2048.63" y1="1858.44" x2="2113.43" y2="1858.44" style="stroke:#F0F0F0;stroke-width:9.72"/>
	<line x1="2145.82" y1="1858.44" x2="2210.63" y2="1858.44" style="stroke:#F0F0F0;stroke-width:9.72"/>
	<line x1="2243.03" y1="1858.44" x2="2307.82" y2="1858.44" style="stroke:#F0F0F0;stroke-width:9.72"/>
	<line x1="2340.23" y1="1858.44" x2="2405.03" y2="1858.44" style="stroke:#F0F0F0;stroke-width:9.72"/>
	<line x1="2437.43" y1="1858.44" x2="2502.23" y2="1858.44" style="stroke:#F0F0F0;stroke-width:9.72"/>
	<line x1="2534.63" y1="1858.44" x2="2599.43" y2="1858.44" style="stroke:#F0F0F0;stroke-width:9.72"/>
	<line x1="2631.83" y1="1858.44" x2="2696.63" y2="1858.44" style="stroke:#F0F0F0;stroke-width:9.72"/>
	<line x1="2729.03" y1="1858.44" x2="2793.83" y2="1858.44" style="stroke:#F0F0F0;stroke-width:9.72"/>
	<line x1="2826.23" y1="1858.44" x2="2891.03" y2="1858.44" style="stroke:#F0F0F0;stroke-width:9.72"/>
	<line x1="2923.43" y1="1858.44" x2="2988.23" y2="1858.44" style="stroke:#F0F0F0;stroke-width:9.72"/>
	<line x1="3020.63" y1="1858.44" x2="3085.43" y2="1858.44" style="stroke:#F0F0F0;stroke-width:9.72"/>
	<line x1="3117.83" y1="1858.44" x2="3182.63" y2="1858.44" style="stroke:#F0F0F0;stroke-width:9.72"/>
	<line x1="3215.03" y1="1858.44" x2="3279.83" y2="1858.44" style="stroke:#F0F0F0;stroke-width:9.72"/>
	<line x1="3312.23" y1="1858.44" x2="3377.03" y2="1858.44" style="stroke:#F0F0F0;stroke-width:9.72"/>
	<line x1="3409.43" y1="1858.44" x2="3474.23" y2="1858.44" style="stroke:#F0F0F0;stroke-width:9.72"/>
	<line x1="3506.63" y1="1858.44" x2="3571.43" y2="1858.44" style="stroke:#F0F0F0;stroke-width:9.72"/>
	<line x1="3603.83" y1="1858.44" x2="3668.63" y2="1858.44" style="stroke:#F0F0F0;stroke-width:9.72"/>
	<line x1="3701.03" y1="1858.44" x2="3765.83" y2="1858.44" style="stroke:#F0F0F0;stroke-width:9.72"/>
	<line x1="3798.23" y1="1858.44" x2="3863.03" y2="1858.44" style="stroke:#F0F0F0;stroke-width:9.72"/>
	<line x1="3895.43" y1="1858.44" x2="3960.23" y2="1858.44" style="stroke:#F0F0F0;stroke-width:9.72"/>
	<line x1="3992.63" y1="1858.44" x2="4057.43" y2="1858.44" style="stroke:#F0F0F0;stroke-width:9.72"/>
	<line x1="4089.83" y1="1858.44" x2="4154.63" y2="1858.44" style="stroke:#F0F0F0;stroke-width:9.72"/>
	<line x1="4187.02" y1="1858.44" x2="4251.83" y2="1858.44" style="stroke:#F0F0F0;stroke-width:9.72"/>
	<line x1="4284.23" y1="1858.44" x2="4349.02" y2="1858.44" style="stroke:#F0F0F0;stroke-width:9.72"/>
	<line x1="4381.43" y1="1858.44" x2="4446.23" y2="1858.44" style="stroke:#F0F0F0;stroke-width:9.72"/>
	<line x1="4478.63" y1="1858.44" x2="4543.43" y2="1858.44" style="stroke:#F0F0F0;stroke-width:9.72"/>
	<line x1="4575.83" y1="1858.44" x2="4640.63" y2="1858.44" style="stroke:#F0F0F0;stroke-width:9.72"/>
	<line x1="4673.02" y1="1858.44" x2="4737.83" y2="1858.44" style="stroke:#F0F0F0;stroke-width:9.72"/>
	<line x1="4770.23" y1="1858.44" x2="4835.02" y2="1858.44" style="stroke:#F0F0F0;stroke-width:9.72"/>
	<line x1="4867.43" y1="1858.44" x2="4932.23" y2="1858.44" style="stroke:#F0F0F0;stroke-width:9.72"/>
	<line x1="4964.63" y1="1858.44" x2="5029.43" y2="1858.44" style="stroke:#F0F0F0;stroke-width:9.72"/>
	<line x1="5061.83" y1="1858.44" x2="5126.63" y2="1858.44" style="stroke:#F0F0F0;stroke-width:9.72"/>
	<line x1="5159.02" y1="1858.44" x2="5223.83" y2="1858.44" style="stroke:#F0F0F0;stroke-width:9.72"/>
	<line x1="5256.23" y1="1858.44" x2="5286.60" y2="1858.44" style="stroke:#F0F0F0;stroke-width:9.72"/>
	<line x1="590.63" y1="1021.61" x2="655.43" y2="1021.61" style="stroke:#F0F0F0;stroke-width:9.72"/>
	<line x1="687.83" y1="1021.61" x2="752.63" y2="1021.61" style="stroke:#F0F0F0;stroke-width:9.72"/>
	<line x1="785.03" y1="1021.61" x2="849.83" y2="1021.61" style="stroke:#F0F0F0;stroke-width:9.72"/>
	<line x1="882.23" y1="1021.61" x2="947.03" y2="1021.61" style="stroke:#F0F0F0;stroke-width:9.72"/>
	<line x1="979.43" y1="1021.61" x2="1044.22" y2="1021.61" style="stroke:#F0F0F0;stroke-width:9.72"/>
	<line x1="1076.63" y1="1021.61" x2="1141.43" y2="1021.61" style="stroke:#F0F0F0;stroke-width:9.72"/>
	<line x1="1173.83" y1="1021.61" x2="1238.63" y2="1021.61" style="stroke:#F0F0F0;stroke-width:9.72"/>
	<line x1="1271.03" y1="1021.61" x2="1335.83" y2="1021.61" style="stroke:#F0F0F0;stroke-width:9.72"/>
	<line x1="1368.23" y1="1021.61" x2="1433.03" y2="1021.61" style="stroke:#F0F0F0;stroke-width:9.72"/>
	<line x1="1465.43" y1="1021.61" x2="1530.23" y2="1021.61" style="stroke:#F0F0F0;stroke-width:9.72"/>
	<line x1="1562.63" y1="1021.61" x2="1627.43" y2="1021.61" style="stroke:#F0F0F0;stroke-width:9.72"/>
	<line x1="1659.83" y1="1021.61" x2="1724.63" y2="1021.61" style="stroke:#F0F0F0;stroke-width:9.72"/>
	<line x1="1757.03" y1="1021.61" x2="1821.83" y2="1021.61" style="stroke:#F0F0F0;stroke-width:9.72"/>
	<line x1="1854.23" y1="1021.61" x2="1919.03" y2="1021.61" style="stroke:#F0F0F0;stroke-width:9.72"/>
	<line x1="1951.43" y1="1021.61" x2="2016.23" y2="1021.61" style="stroke:#F0F0F0;stroke-width:9.72"/>
	<line x1="2048.63" y1="1021.61" x2="2113.43" y2="1021.61" style="stroke:#F0F0F0;stroke-width:9.72"/>
	<line x1="2145.82" y1="1021.61" x2="2210.63" y2="1021.61" style="stroke:#F0F0F0;stroke-width:9.72"/>
	<line x1="2243.03" y1="1021.61" x2="2307.82" y2="1021.61" style="stroke:#F0F0F0;stroke-width:9.72"/>
	<line x1="2340.23" y1="1021.61" x2="2405.03" y2="1021.61" style="stroke:#F0F0F0;stroke-width:9.72"/>
	<line x1="2437.43" y1="1021.61" x2="2502.23" y2="1021.61" style="stroke:#F0F0F0;stroke-width:9.72"/>
	<line x1="2534.63" y1="1021.61" x2="2599.43" y2="1021.61" style="stroke:#F0F0F0;stroke-width:9.72"/>
	<line x1="2631.83" y1="1021.61" x2="2696.63" y2="1021.61" style="stroke:#F0F0F0;stroke-width:9.72"/>
	<line x1="2729.03" y1="1021.61" x2="2793.83" y2="1021.61" style="stroke:#F0F0F0;stroke-width:9.72"/>
	<line x1="2826.23" y1="1021.61" x2="2891.03" y2="1021.61" style="stroke:#F0F0F0;stroke-width:9.72"/>
	<line x1="2923.43" y1="1021.61" x2="2988.23" y2="1021.61" style="stroke:#F0F0F0;stroke-width:9.72"/>
	<line x1="3020.63" y1="1021.61" x2="3085.43" y2="1021.61" style="stroke:#F0F0F0;stroke-width:9.72"/>
	<line x1="3117.83" y1="1021.61" x2="3182.63" y2="1021.61" style="stroke:#F0F0F0;stroke-width:9.72"/>
	<line x1="3215.03" y1="1021.61" x2="3279.83" y2="1021.61" style="stroke:#F0F0F0;stroke-width:9.72"/>
	<line x1="3312.23" y1="1021.61" x2="3377.03" y2="1021.61" style="stroke:#F0F0F0;stroke-width:9.72"/>
	<line x1="3409.43" y1="1021.61" x2="3474.23" y2="1021.61" style="stroke:#F0F0F0;stroke-width:9.72"/>
	<line x1="3506.63" y1="1021.61" x2="3571.43" y2="1021.61" style="stroke:#F0F0F0;stroke-width:9.72"/>
	<line x1="3603.83" y1="1021.61" x2="3668.63" y2="1021.61" style="stroke:#F0F0F0;stroke-width:9.72"/>
	<line x1="3701.03" y1="1021.61" x2="3765.83" y2="1021.61" style="stroke:#F0F0F0;stroke-width:9.72"/>
	<line x1="3798.23" y1="1021.61" x2="3863.03" y2="1021.61" style="stroke:#F0F0F0;stroke-width:9.72"/>
	<line x1="3895.43" y1="1021.61" x2="3960.23" y2="1021.61" style="stroke:#F0F0F0;stroke-width:9.72"/>
	<line x1="3992.63" y1="1021.61" x2="4057.43" y2="1021.61" style="stroke:#F0F0F0;stroke-width:9.72"/>
	<line x1="4089.83" y1="1021.61" x2="4154.63" y2="1021.61" style="stroke:#F0F0F0;stroke-width:9.72"/>
	<line x1="4187.02" y1="1021.61" x2="4251.83" y2="1021.61" style="stroke:#F0F0F0;stroke-width:9.72"/>
	<line x1="4284.23" y1="1021.61" x2="4349.02" y2="1021.61" style="stroke:#F0F0F0;stroke-width:9.72"/>
	<line x1="4381.43" y1="1021.61" x2="4446.23" y2="1021.61" style="stroke:#F0F0F0;stroke-width:9.72"/>
	<line x1="4478.63" y1="1021.61" x2="4543.43" y2="1021.61" style="stroke:#F0F0F0;stroke-width:9.72"/>
	<line x1="4575.83" y1="1021.61" x2="4640.63" y2="1021.61" style="stroke:#F0F0F0;stroke-width:9.72"/>
	<line x1="4673.02" y1="1021.61" x2="4737.83" y2="1021.61" style="stroke:#F0F0F0;stroke-width:9.72"/>
	<line x1="4770.23" y1="1021.61" x2="4835.02" y2="1021.61" style="stroke:#F0F0F0;stroke-width:9.72"/>
	<line x1="4867.43" y1="1021.61" x2="4932.23" y2="1021.61" style="stroke:#F0F0F0;stroke-width:9.72"/>
	<line x1="4964.63" y1="1021.61" x2="5029.43" y2="1021.61" style="stroke:#F0F0F0;stroke-width:9.72"/>
	<line x1="5061.83" y1="1021.61" x2="5126.63" y2="1021.61" style="stroke:#F0F0F0;stroke-width:9.72"/>
	<line x1="5159.02" y1="1021.61" x2="5223.83" y2="1021.61" style="stroke:#F0F0F0;stroke-width:9.72"/>
	<line x1="5256.23" y1="1021.61" x2="5286.60" y2="1021.61" style="stroke:#F0F0F0;stroke-width:9.72"/>
	<line x1="590.63" y1="184.61" x2="655.43" y2="184.61" style="stroke:#F0F0F0;stroke-width:9.72"/>
	<line x1="687.83" y1="184.61" x2="752.63" y2="184.61" style="stroke:#F0F0F0;stroke-width:9.72"/>
	<line x1="785.03" y1="184.61" x2="849.83" y2="184.61" style="stroke:#F0F0F0;stroke-width:9.72"/>
	<line x1="882.23" y1="184.61" x2="947.03" y2="184.61" style="stroke:#F0F0F0;stroke-width:9.72"/>
	<line x1="979.43" y1="184.61" x2="1044.22" y2="184.61" style="stroke:#F0F0F0;stroke-width:9.72"/>
	<line x1="1076.63" y1="184.61" x2="1141.43" y2="184.61" style="stroke:#F0F0F0;stroke-width:9.72"/>
	<line x1="1173.83" y1="184.61" x2="1238.63" y2="184.61" style="stroke:#F0F0F0;stroke-width:9.72"/>
	<line x1="1271.03" y1="184.61" x2="1335.83" y2="184.61" style="stroke:#F0F0F0;stroke-width:9.72"/>
	<line x1="1368.23" y1="184.61" x2="1433.03" y2="184.61" style="stroke:#F0F0F0;stroke-width:9.72"/>
	<line x1="1465.43" y1="184.61" x2="1530.23" y2="184.61" style="stroke:#F0F0F0;stroke-width:9.72"/>
	<line x1="1562.63" y1="184.61" x2="1627.43" y2="184.61" style="stroke:#F0F0F0;stroke-width:9.72"/>
	<line x1="1659.83" y1="184.61" x2="1724.63" y2="184.61" style="stroke:#F0F0F0;stroke-width:9.72"/>
	<line x1="1757.03" y1="184.61" x2="1821.83" y2="184.61" style="stroke:#F0F0F0;stroke-width:9.72"/>
	<line x1="1854.23" y1="184.61" x2="1919.03" y2="184.61" style="stroke:#F0F0F0;stroke-width:9.72"/>
	<line x1="1951.43" y1="184.61" x2="2016.23" y2="184.61" style="stroke:#F0F0F0;stroke-width:9.72"/>
	<line x1="2048.63" y1="184.61" x2="2113.43" y2="184.61" style="stroke:#F0F0F0;stroke-width:9.72"/>
	<line x1="2145.82" y1="184.61" x2="2210.63" y2="184.61" style="stroke:#F0F0F0;stroke-width:9.72"/>
	<line x1="2243.03" y1="184.61" x2="2307.82" y2="184.61" style="stroke:#F0F0F0;stroke-width:9.72"/>
	<line x1="2340.23" y1="184.61" x2="2405.03" y2="184.61" style="stroke:#F0F0F0;stroke-width:9.72"/>
	<line x1="2437.43" y1="184.61" x2="2502.23" y2="184.61" style="stroke:#F0F0F0;stroke-width:9.72"/>
	<line x1="2534.63" y1="184.61" x2="2599.43" y2="184.61" style="stroke:#F0F0F0;stroke-width:9.72"/>
	<line x1="2631.83" y1="184.61" x2="2696.63" y2="184.61" style="stroke:#F0F0F0;stroke-width:9.72"/>
	<line x1="2729.03" y1="184.61" x2="2793.83" y2="184.61" style="stroke:#F0F0F0;stroke-width:9.72"/>
	<line x1="2826.23" y1="184.61" x2="2891.03" y2="184.61" style="stroke:#F0F0F0;stroke-width:9.72"/>
	<line x1="2923.43" y1="184.61" x2="2988.23" y2="184.61" style="stroke:#F0F0F0;stroke-width:9.72"/>
	<line x1="3020.63" y1="184.61" x2="3085.43" y2="184.61" style="stroke:#F0F0F0;stroke-width:9.72"/>
	<line x1="3117.83" y1="184.61" x2="3182.63" y2="184.61" style="stroke:#F0F0F0;stroke-width:9.72"/>
	<line x1="3215.03" y1="184.61" x2="3279.83" y2="184.61" style="stroke:#F0F0F0;stroke-width:9.72"/>
	<line x1="3312.23" y1="184.61" x2="3377.03" y2="184.61" style="stroke:#F0F0F0;stroke-width:9.72"/>
	<line x1="3409.43" y1="184.61" x2="3474.23" y2="184.61" style="stroke:#F0F0F0;stroke-width:9.72"/>
	<line x1="3506.63" y1="184.61" x2="3571.43" y2="184.61" style="stroke:#F0F0F0;stroke-width:9.72"/>
	<line x1="3603.83" y1="184.61" x2="3668.63" y2="184.61" style="stroke:#F0F0F0;stroke-width:9.72"/>
	<line x1="3701.03" y1="184.61" x2="3765.83" y2="184.61" style="stroke:#F0F0F0;stroke-width:9.72"/>
	<line x1="3798.23" y1="184.61" x2="3863.03" y2="184.61" style="stroke:#F0F0F0;stroke-width:9.72"/>
	<line x1="3895.43" y1="184.61" x2="3960.23" y2="184.61" style="stroke:#F0F0F0;stroke-width:9.72"/>
	<line x1="3992.63" y1="184.61" x2="4057.43" y2="184.61" style="stroke:#F0F0F0;stroke-width:9.72"/>
	<line x1="4089.83" y1="184.61" x2="4154.63" y2="184.61" style="stroke:#F0F0F0;stroke-width:9.72"/>
	<line x1="4187.02" y1="184.61" x2="4251.83" y2="184.61" style="stroke:#F0F0F0;stroke-width:9.72"/>
	<line x1="4284.23" y1="184.61" x2="4349.02" y2="184.61" style="stroke:#F0F0F0;stroke-width:9.72"/>
	<line x1="4381.43" y1="184.61" x2="4446.23" y2="184.61" style="stroke:#F0F0F0;stroke-width:9.72"/>
	<line x1="4478.63" y1="184.61" x2="4543.43" y2="184.61" style="stroke:#F0F0F0;stroke-width:9.72"/>
	<line x1="4575.83" y1="184.61" x2="4640.63" y2="184.61" style="stroke:#F0F0F0;stroke-width:9.72"/>
	<line x1="4673.02" y1="184.61" x2="4737.83" y2="184.61" style="stroke:#F0F0F0;stroke-width:9.72"/>
	<line x1="4770.23" y1="184.61" x2="4835.02" y2="184.61" style="stroke:#F0F0F0;stroke-width:9.72"/>
	<line x1="4867.43" y1="184.61" x2="4932.23" y2="184.61" style="stroke:#F0F0F0;stroke-width:9.72"/>
	<line x1="4964.63" y1="184.61" x2="5029.43" y2="184.61" style="stroke:#F0F0F0;stroke-width:9.72"/>
	<line x1="5061.83" y1="184.61" x2="5126.63" y2="184.61" style="stroke:#F0F0F0;stroke-width:9.72"/>
	<line x1="5159.02" y1="184.61" x2="5223.83" y2="184.61" style="stroke:#F0F0F0;stroke-width:9.72"/>
	<line x1="5256.23" y1="184.61" x2="5286.60" y2="184.61" style="stroke:#F0F0F0;stroke-width:9.72"/>
	<line x1="661.84" y1="2766.66" x2="661.84" y2="2701.86" style="stroke:#F0F0F0;stroke-width:9.72"/>
	<line x1="661.84" y1="2669.46" x2="661.84" y2="2604.66" style="stroke:#F0F0F0;stroke-width:9.72"/>
	<line x1="661.84" y1="2572.26" x2="661.84" y2="2507.46" style="stroke:#F0F0F0;stroke-width:9.72"/>
	<line x1="661.84" y1="2475.06" x2="661.84" y2="2410.26" style="stroke:#F0F0F0;stroke-width:9.72"/>
	<line x1="661.84" y1="2377.86" x2="661.84" y2="2313.06" style="stroke:#F0F0F0;stroke-width:9.72"/>
	<line x1="661.84" y1="2280.66" x2="661.84" y2="2215.86" style="stroke:#F0F0F0;stroke-width:9.72"/>
	<line x1="661.84" y1="2183.46" x2="661.84" y2="2118.66" style="stroke:#F0F0F0;stroke-width:9.72"/>
	<line x1="661.84" y1="2086.26" x2="661.84" y2="2021.46" style="stroke:#F0F0F0;stroke-width:9.72"/>
	<line x1="661.84" y1="1989.06" x2="661.84" y2="1924.26" style="stroke:#F0F0F0;stroke-width:9.72"/>
	<line x1="661.84" y1="1891.86" x2="661.84" y2="1827.06" style="stroke:#F0F0F0;stroke-width:9.72"/>
	<line x1="661.84" y1="1794.66" x2="661.84" y2="1729.86" style="stroke:#F0F0F0;stroke-width:9.72"/>
	<line x1="661.84" y1="1697.46" x2="661.84" y2="1632.66" style="stroke:#F0F0F0;stroke-width:9.72"/>
	<line x1="661.84" y1="1600.26" x2="661.84" y2="1535.46" style="stroke:#F0F0F0;stroke-width:9.72"/>
	<line x1="661.84" y1="1503.06" x2="661.84" y2="1438.26" style="stroke:#F0F0F0;stroke-width:9.72"/>
	<line x1="661.84" y1="1405.86" x2="661.84" y2="1341.06" style="stroke:#F0F0F0;stroke-width:9.72"/>
	<line x1="661.84" y1="1308.66" x2="661.84" y2="1243.86" style="stroke:#F0F0F0;stroke-width:9.72"/>
	<line x1="661.84" y1="1211.46" x2="661.84" y2="1146.66" style="stroke:#F0F0F0;stroke-width:9.72"/>
	<line x1="661.84" y1="1114.26" x2="661.84" y2="1049.46" style="stroke:#F0F0F0;stroke-width:9.72"/>
	<line x1="661.84" y1="1017.06" x2="661.84" y2="952.26" style="stroke:#F0F0F0;stroke-width:9.72"/>
	<line x1="661.84" y1="919.86" x2="661.84" y2="855.06" style="stroke:#F0F0F0;stroke-width:9.72"/>
	<line x1="661.84" y1="822.66" x2="661.84" y2="757.86" style="stroke:#F0F0F0;stroke-width:9.72"/>
	<line x1="661.84" y1="725.46" x2="661.84" y2="660.66" style="stroke:#F0F0F0;stroke-width:9.72"/>
	<line x1="661.84" y1="628.26" x2="661.84" y2="563.46" style="stroke:#F0F0F0;stroke-width:9.72"/>
	<line x1="661.84" y1="531.06" x2="661.84" y2="466.26" style="stroke:#F0F0F0;stroke-width:9.72"/>
	<line x1="661.84" y1="433.86" x2="661.84" y2="369.06" style="stroke:#F0F0F0;stroke-width:9.72"/>
	<line x1="661.84" y1="336.66" x2="661.84" y2="271.86" style="stroke:#F0F0F0;stroke-width:9.72"/>
	<line x1="661.84" y1="239.46" x2="661.84" y2="174.66" style="stroke:#F0F0F0;stroke-width:9.72"/>
	<line x1="661.84" y1="142.26" x2="661.84" y2="113.40" style="stroke:#F0F0F0;stroke-width:9.72"/>
	<line x1="2179.74" y1="2766.66" x2="2179.74" y2="2701.86" style="stroke:#F0F0F0;stroke-width:9.72"/>
	<line x1="2179.74" y1="2669.46" x2="2179.74" y2="2604.66" style="stroke:#F0F0F0;stroke-width:9.72"/>
	<line x1="2179.74" y1="2572.26" x2="2179.74" y2="2507.46" style="stroke:#F0F0F0;stroke-width:9.72"/>
	<line x1="2179.74" y1="2475.06" x2="2179.74" y2="2410.26" style="stroke:#F0F0F0;stroke-width:9.72"/>
	<line x1="2179.74" y1="2377.86" x2="2179.74" y2="2313.06" style="stroke:#F0F0F0;stroke-width:9.72"/>
	<line x1="2179.74" y1="2280.66" x2="2179.74" y2="2215.86" style="stroke:#F0F0F0;stroke-width:9.72"/>
	<line x1="2179.74" y1="2183.46" x2="2179.74" y2="2118.66" style="stroke:#F0F0F0;stroke-width:9.72"/>
	<line x1="2179.74" y1="2086.26" x2="2179.74" y2="2021.46" style="stroke:#F0F0F0;stroke-width:9.72"/>
	<line x1="2179.74" y1="1989.06" x2="2179.74" y2="1924.26" style="stroke:#F0F0F0;stroke-width:9.72"/>
	<line x1="2179.74" y1="1891.86" x2="2179.74" y2="1827.06" style="stroke:#F0F0F0;stroke-width:9.72"/>
	<line x1="2179.74" y1="1794.66" x2="2179.74" y2="1729.86" style="stroke:#F0F0F0;stroke-width:9.72"/>
	<line x1="2179.74" y1="1697.46" x2="2179.74" y2="1632.66" style="stroke:#F0F0F0;stroke-width:9.72"/>
	<line x1="2179.74" y1="1600.26" x2="2179.74" y2="1535.46" style="stroke:#F0F0F0;stroke-width:9.72"/>
	<line x1="2179.74" y1="1503.06" x2="2179.74" y2="1438.26" style="stroke:#F0F0F0;stroke-width:9.72"/>
	<line x1="2179.74" y1="1405.86" x2="2179.74" y2="1341.06" style="stroke:#F0F0F0;stroke-width:9.72"/>
	<line x1="2179.74" y1="1308.66" x2="2179.74" y2="1243.86" style="stroke:#F0F0F0;stroke-width:9.72"/>
	<line x1="2179.74" y1="1211.46" x2="2179.74" y2="1146.66" style="stroke:#F0F0F0;stroke-width:9.72"/>
	<line x1="2179.74" y1="1114.26" x2="2179.74" y2="1049.46" style="stroke:#F0F0F0;stroke-width:9.72"/>
	<line x1="2179.74" y1="1017.06" x2="2179.74" y2="952.26" style="stroke:#F0F0F0;stroke-width:9.72"/>
	<line x1="2179.74" y1="919.86" x2="2179.74" y2="855.06" style="stroke:#F0F0F0;stroke-width:9.72"/>
	<line x1="2179.74" y1="822.66" x2="2179.74" y2="757.86" style="stroke:#F0F0F0;stroke-width:9.72"/>
	<line x1="2179.74" y1="725.46" x2="2179.74" y2="660.66" style="stroke:#F0F0F0;stroke-width:9.72"/>
	<line x1="2179.74" y1="628.26" x2="2179.74" y2="563.46" style="stroke:#F0F0F0;stroke-width:9.72"/>
	<line x1="2179.74" y1="531.06" x2="2179.74" y2="466.26" style="stroke:#F0F0F0;stroke-width:9.72"/>
	<line x1="2179.74" y1="433.86" x2="2179.74" y2="369.06" style="stroke:#F0F0F0;stroke-width:9.72"/>
	<line x1="2179.74" y1="336.66" x2="2179.74" y2="271.86" style="stroke:#F0F0F0;stroke-width:9.72"/>
	<line x1="2179.74" y1="239.46" x2="2179.74" y2="174.66" style="stroke:#F0F0F0;stroke-width:9.72"/>
	<line x1="2179.74" y1="142.26" x2="2179.74" y2="113.40" style="stroke:#F0F0F0;stroke-width:9.72"/>
	<line x1="3697.48" y1="2766.66" x2="3697.48" y2="2701.86" style="stroke:#F0F0F0;stroke-width:9.72"/>
	<line x1="3697.48" y1="2669.46" x2="3697.48" y2="2604.66" style="stroke:#F0F0F0;stroke-width:9.72"/>
	<line x1="3697.48" y1="2572.26" x2="3697.48" y2="2507.46" style="stroke:#F0F0F0;stroke-width:9.72"/>
	<line x1="3697.48" y1="2475.06" x2="3697.48" y2="2410.26" style="stroke:#F0F0F0;stroke-width:9.72"/>
	<line x1="3697.48" y1="2377.86" x2="3697.48" y2="2313.06" style="stroke:#F0F0F0;stroke-width:9.72"/>
	<line x1="3697.48" y1="2280.66" x2="3697.48" y2="2215.86" style="stroke:#F0F0F0;stroke-width:9.72"/>
	<line x1="3697.48" y1="2183.46" x2="3697.48" y2="2118.66" style="stroke:#F0F0F0;stroke-width:9.72"/>
	<line x1="3697.48" y1="2086.26" x2="3697.48" y2="2021.46" style="stroke:#F0F0F0;stroke-width:9.72"/>
	<line x1="3697.48" y1="1989.06" x2="3697.48" y2="1924.26" style="stroke:#F0F0F0;stroke-width:9.72"/>
	<line x1="3697.48" y1="1891.86" x2="3697.48" y2="1827.06" style="stroke:#F0F0F0;stroke-width:9.72"/>
	<line x1="3697.48" y1="1794.66" x2="3697.48" y2="1729.86" style="stroke:#F0F0F0;stroke-width:9.72"/>
	<line x1="3697.48" y1="1697.46" x2="3697.48" y2="1632.66" style="stroke:#F0F0F0;stroke-width:9.72"/>
	<line x1="3697.48" y1="1600.26" x2="3697.48" y2="1535.46" style="stroke:#F0F0F0;stroke-width:9.72"/>
	<line x1="3697.48" y1="1503.06" x2="3697.48" y2="1438.26" style="stroke:#F0F0F0;stroke-width:9.72"/>
	<line x1="3697.48" y1="1405.86" x2="3697.48" y2="1341.06" style="stroke:#F0F0F0;stroke-width:9.72"/>
	<line x1="3697.48" y1="1308.66" x2="3697.48" y2="1243.86" style="stroke:#F0F0F0;stroke-width:9.72"/>
	<line x1="3697.48" y1="1211.46" x2="3697.48" y2="1146.66" style="stroke:#F0F0F0;stroke-width:9.72"/>
	<line x1="3697.48" y1="1114.26" x2="3697.48" y2="1049.46" style="stroke:#F0F0F0;stroke-width:9.72"/>
	<line x1="3697.48" y1="1017.06" x2="3697.48" y2="952.26" style="stroke:#F0F0F0;stroke-width:9.72"/>
	<line x1="3697.48" y1="919.86" x2="3697.48" y2="855.06" style="stroke:#F0F0F0;stroke-width:9.72"/>
	<line x1="3697.48" y1="822.66" x2="3697.48" y2="757.86" style="stroke:#F0F0F0;stroke-width:9.72"/>
	<line x1="3697.48" y1="725.46" x2="3697.48" y2="660.66" style="stroke:#F0F0F0;stroke-width:9.72"/>
	<line x1="3697.48" y1="628.26" x2="3697.48" y2="563.46" style="stroke:#F0F0F0;stroke-width:9.72"/>
	<line x1="3697.48" y1="531.06" x2="3697.48" y2="466.26" style="stroke:#F0F0F0;stroke-width:9.72"/>
	<line x1="3697.48" y1="433.86" x2="3697.48" y2="369.06" style="stroke:#F0F0F0;stroke-width:9.72"/>
	<line x1="3697.48" y1="336.66" x2="3697.48" y2="271.86" style="stroke:#F0F0F0;stroke-width:9.72"/>
	<line x1="3697.48" y1="239.46" x2="3697.48" y2="174.66" style="stroke:#F0F0F0;stroke-width:9.72"/>
	<line x1="3697.48" y1="142.26" x2="3697.48" y2="113.40" style="stroke:#F0F0F0;stroke-width:9.72"/>
	<line x1="5215.39" y1="2766.66" x2="5215.39" y2="2701.86" style="stroke:#F0F0F0;stroke-width:9.72"/>
	<line x1="5215.39" y1="2669.46" x2="5215.39" y2="2604.66" style="stroke:#F0F0F0;stroke-width:9.72"/>
	<line x1="5215.39" y1="2572.26" x2="5215.39" y2="2507.46" style="stroke:#F0F0F0;stroke-width:9.72"/>
	<line x1="5215.39" y1="2475.06" x2="5215.39" y2="2410.26" style="stroke:#F0F0F0;stroke-width:9.72"/>
	<line x1="5215.39" y1="2377.86" x2="5215.39" y2="2313.06" style="stroke:#F0F0F0;stroke-width:9.72"/>
	<line x1="5215.39" y1="2280.66" x2="5215.39" y2="2215.86" style="stroke:#F0F0F0;stroke-width:9.72"/>
	<line x1="5215.39" y1="2183.46" x2="5215.39" y2="2118.66" style="stroke:#F0F0F0;stroke-width:9.72"/>
	<line x1="5215.39" y1="2086.26" x2="5215.39" y2="2021.46" style="stroke:#F0F0F0;stroke-width:9.72"/>
	<line x1="5215.39" y1="1989.06" x2="5215.39" y2="1924.26" style="stroke:#F0F0F0;stroke-width:9.72"/>
	<line x1="5215.39" y1="1891.86" x2="5215.39" y2="1827.06" style="stroke:#F0F0F0;stroke-width:9.72"/>
	<line x1="5215.39" y1="1794.66" x2="5215.39" y2="1729.86" style="stroke:#F0F0F0;stroke-width:9.72"/>
	<line x1="5215.39" y1="1697.46" x2="5215.39" y2="1632.66" style="stroke:#F0F0F0;stroke-width:9.72"/>
	<line x1="5215.39" y1="1600.26" x2="5215.39" y2="1535.46" style="stroke:#F0F0F0;stroke-width:9.72"/>
	<line x1="5215.39" y1="1503.06" x2="5215.39" y2="1438.26" style="stroke:#F0F0F0;stroke-width:9.72"/>
	<line x1="5215.39" y1="1405.86" x2="5215.39" y2="1341.06" style="stroke:#F0F0F0;stroke-width:9.72"/>
	<line x1="5215.39" y1="1308.66" x2="5215.39" y2="1243.86" style="stroke:#F0F0F0;stroke-width:9.72"/>
	<line x1="5215.39" y1="1211.46" x2="5215.39" y2="1146.66" style="stroke:#F0F0F0;stroke-width:9.72"/>
	<line x1="5215.39" y1="1114.26" x2="5215.39" y2="1049.46" style="stroke:#F0F0F0;stroke-width:9.72"/>
	<line x1="5215.39" y1="1017.06" x2="5215.39" y2="952.26" style="stroke:#F0F0F0;stroke-width:9.72"/>
	<line x1="5215.39" y1="919.86" x2="5215.39" y2="855.06" style="stroke:#F0F0F0;stroke-width:9.72"/>
	<line x1="5215.39" y1="822.66" x2="5215.39" y2="757.86" style="stroke:#F0F0F0;stroke-width:9.72"/>
	<line x1="5215.39" y1="725.46" x2="5215.39" y2="660.66" style="stroke:#F0F0F0;stroke-width:9.72"/>
	<line x1="5215.39" y1="628.26" x2="5215.39" y2="563.46" style="stroke:#F0F0F0;stroke-width:9.72"/>
	<line x1="5215.39" y1="531.06" x2="5215.39" y2="466.26" style="stroke:#F0F0F0;stroke-width:9.72"/>
	<line x1="5215.39" y1="433.86" x2="5215.39" y2="369.06" style="stroke:#F0F0F0;stroke-width:9.72"/>
	<line x1="5215.39" y1="336.66" x2="5215.39" y2="271.86" style="stroke:#F0F0F0;stroke-width:9.72"/>
	<line x1="5215.39" y1="239.46" x2="5215.39" y2="174.66" style="stroke:#F0F0F0;stroke-width:9.72"/>
	<line x1="5215.39" y1="142.26" x2="5215.39" y2="113.40" style="stroke:#F0F0F0;stroke-width:9.72"/>
	<path d=" M2786.74 2554.71 L3090.32 2548.29 L3393.90 2539.01 L3697.48 2547.62 L4001.06 2534.12 L4304.48 2540.36 L965.42 2542.05 L1268.83 2543.23 L1572.41 2538.34 L1875.99 2534.96 L2179.57 2537.49 L2483.16 2535.81 L2786.74 2533.61 L3090.32 2528.04 L3393.90 2528.38 L3697.48 2524.67 L4001.06 2523.82 L4304.48 2522.64 L965.42 2518.59 L1268.83 2516.40 L1572.41 2515.05 L1875.99 2512.52 L2179.57 2506.28 L2483.16 2487.71 L2786.74 2474.89 L3090.32 2452.61 L3393.90 2438.78 L3697.48 2428.48 L4001.06 2414.81 L4304.48 2393.89 L965.42 2347.65 L1268.83 2328.24 L1572.41 2294.66 L1875.99 2299.39 L2179.57 2252.14 L2483.16 2220.58 L2786.74 2244.04 L3090.32 2187.51 L3393.90 2241.84 L3697.48 2224.97 L4001.06 2216.70 L4304.48 2177.89 L965.42 2136.54 L1268.83 2062.97 L1572.41 1996.31 L1875.99 2070.06 L2179.57 2086.93 L2483.16 2106.68 L2786.74 2149.37 L3090.32 2122.20 L3393.90 2116.63 L3697.48 2115.96 L4001.06 2107.52 L4304.48 2117.98 L965.42 2116.46 L1268.83 2132.66 L1572.41 2159.66 L1875.99 2176.20 L2179.57 2166.41 L2483.16 2174.34 L2786.74 2180.42 L3090.32 2173.67 L3393.90 2170.13 L3697.48 2154.94 L4001.06 2153.42 L4304.48 2169.45 L965.42 2167.26 L1268.83 2201.18 L1572.41 2204.04 L1875.99 2212.14 L2179.57 2216.87 L2483.16 2213.16 L2786.74 2211.13 L3090.32 2209.28 L3393.90 2209.44 L3697.48 2208.60 L4001.06 2200.67 L4304.48 2212.99 L965.42 2210.96 L1268.83 2210.46 L1572.41 2214.17 L1875.99 2214.51 L2179.57 2214.68 L2483.16 2213.66 L2786.74 2215.01 L3090.32 2217.04 L3393.90 2220.92 L3697.48 2218.05 L4001.06 2243.87 L4304.48 2250.79 L965.42 2271.21 L1268.83 2284.71 L1572.41 2275.09 L1875.99 2272.89 L2179.57 2266.65 L2483.16 2275.76 L2786.74 2275.43 L3090.32 2275.26 L3393.90 2273.40 L3697.48 2270.70 L4001.06 2262.09 L4304.48 2257.20 L965.42 2285.21 L1268.83 2397.43 L1572.41 2497.16 L1875.99 2514.54 L2179.57 2501.89 L2483.16 2490.92 L2786.74 2520.28 L3090.32 2499.19 L3393.90 2481.30 L3697.48 2485.52 L4001.06 2485.35 L4304.48 2476.24 L965.42 2437.43 L1268.83 2429.49 L1572.41 2431.01 L1875.99 2427.30 L2179.57 2416.50 L2483.16 2406.88 L2786.74 2391.36 L3090.32 2389.33 L3393.90 2403.84 L3697.48 2404.69 L4001.06 2411.61 L4304.48 2429.16 L965.42 2441.14 L1268.83 2445.02 L1572.41 2459.70 L1875.99 2438.94 L2179.57 2435.91 L2483.16 2447.21 L2786.74 2470.67 L3090.32 2472.53 L3393.90 2481.30 L3697.48 2497.16 L4001.06 2502.06 L4304.48 2472.69 L965.42 2439.11 L1268.83 2436.92 L1572.41 2413.13 L1875.99 2390.85 L2179.57 2398.11 L2483.16 2401.14 L2786.74 2401.31 L3090.32 2426.96 L3393.90 2411.78 L3697.48 2398.44 L4001.06 2402.32 L4304.48 2386.46 L965.42 2362.84 L1268.83 2366.55 L1572.41 2391.53 L1875.99 2424.94 L2179.57 2428.99 L2483.16 2450.25 L2786.74 2426.79 L3090.32 2287.74 L3393.90 2186.49 L3697.48 2136.71 L4001.06 2192.06 L4304.48 2288.08 L965.42 2325.88 L1268.83 2392.20 L1572.41 2404.86 L1875.99 2391.86 L2179.57 2385.79 L2483.16 2401.48 L2786.74 2382.07 L3090.32 2378.03 L3393.90 2376.34 L3697.48 2354.23 L4001.06 2365.03 L4304.48 2413.63 L965.42 2423.25 L1268.83 2420.38 L1572.41 2422.24 L1875.99 2398.78 L2179.57 2387.64 L2483.16 2363.01 L2786.74 2373.81 L3090.32 2379.88 L3393.90 2370.77 L3697.48 2373.81 L4001.06 2395.41 L4304.48 2412.11 L965.42 2418.19 L1268.83 2404.35 L1572.41 2399.46 L1875.99 2401.65 L2179.57 2411.10 L2483.16 2430.17 L2786.74 2451.26 L3090.32 2450.59 L3393.90 2460.04 L3697.48 2457.17 L4001.06 2484.68 L4304.48 2521.46 L965.42 2499.02 L1268.83 2502.90 L1572.41 2505.26 L1875.99 2478.09 L2179.57 2443.50 L2483.16 2424.94 L2786.74 2415.99 L3090.32 2440.46 L3393.90 2455.65 L3697.48 2450.25 L4001.06 2444.85 L4304.48 2460.54 L965.42 2443.67 L1268.83 2432.03 L1572.41 2434.73 L1875.99 2410.76 L2179.57 2414.64 L2483.16 2434.89 L2786.74 2453.96 L3090.32 2442.66 L3393.90 2437.43 L3697.48 2450.08 L4001.06 2441.64 L4304.48 2420.38 L965.42 2423.76 L1268.83 2425.44 L1572.41 2385.79 L1875.99 2352.88 L2179.57 2385.79 L2483.16 2397.09 L2786.74 2382.75 L3090.32 2371.28 L3393.90 2339.21 L3697.48 2320.82 L4001.06 2344.11 L4304.48 2321.83 L965.42 2322.34 L1268.83 2369.25 L1572.41 2391.69 L1875.99 2407.89 L2179.57 2392.03 L2483.16 2422.57 L2786.74 2417.51 L3090.32 2414.31 L3393.90 2415.66 L3697.48 2389.16 L4001.06 2408.23 L4304.48 2438.61 L965.42 2466.28 L1268.83 2476.91 L1572.41 2495.98 L1875.99 2489.06 L2179.57 2499.86 L2483.16 2523.15 L2786.74 2512.86 L3090.32 2521.80 L3393.90 2496.66 L3697.48 2503.24 L4001.06 2525.01 L4304.48 2551.16 L965.42 2536.14 L1268.83 2541.88 L1572.41 2499.19 L1875.99 2457.00 L2179.57 2440.97 L2483.16 2438.78 L2786.74 2404.52 L3090.32 2382.75 L3393.90 2346.30 L3697.48 2349.51 L4001.06 2312.21 L4304.48 2293.31 L965.42 2277.45 L1268.83 2236.61 L1572.41 2226.15 L1875.99 2297.87 L2179.57 2244.38 L2483.16 2205.56 L2786.74 2226.15 L3090.32 2208.43 L3393.90 2167.09 L3697.48 2178.90 L4001.06 2155.28 L4304.48 2255.85 L965.42 2239.31 L1268.83 2234.08 L1572.41 2276.61 L1875.99 2276.44 L2179.57 2258.89 L2483.16 2276.94 L2786.74 2292.98 L3090.32 2277.62 L3393.90 2292.81 L3697.48 2366.55 L4001.06 2402.16 L4304.48 2414.14 L965.42 2408.23 L1268.83 2395.74 L1572.41 2328.92 L1875.99 2300.74 L2179.57 2283.19 L2483.16 2287.24 L2786.74 2276.61 L3090.32 2259.56 L3393.90 2236.11 L3697.48 2239.99 L4001.06 2261.08 L4304.48 2250.45 L965.42 2193.58 L1268.83 2143.46 L1572.41 2154.26 L1875.99 2221.26 L2179.57 2245.56 L2483.16 2223.11 L2786.74 2205.39 L3090.32 2196.11 L3393.90 2235.94 L3697.48 2220.75 L4001.06 2223.45 L4304.48 2201.34 L965.42 2178.23 L1268.83 2154.60 L1572.41 2127.94 L1875.99 2112.92 L2179.57 2082.71 L2483.16 2112.24 L2786.74 2064.66 L3090.32 1984.33 L3393.90 1960.71 L3697.48 1895.74 L4001.06 1882.41 L4304.48 1982.31 L965.42 1986.69 L1268.83 1941.98 L1572.41 1874.81 L1875.99 1898.10 L2179.57 1901.14 L2483.16 1855.24 L2786.74 1777.44 L3090.32 1702.18 L3393.90 1670.79 L3697.48 1695.77 L4001.06 1759.56 L4304.48 1794.15 L965.42 1751.29 L1268.83 1830.09 L1572.41 1885.95 L1875.99 1734.24 L2179.57 1665.73 L2483.16 1651.56 L2786.74 1583.38 L3090.32 1592.16 L3393.90 1728.17 L3697.48 1847.14 L4001.06 1868.57 L4304.48 1830.09 L965.42 1915.65 L1268.83 1855.91 L1572.41 1812.54 L1875.99 1756.52 L2179.57 1725.98 L2483.16 1652.40 L2786.74 1543.22 L3090.32 1558.91 L3393.90 1507.11 L3697.48 1415.14 L4001.06 1271.03 L4304.48 1344.77 L965.42 1275.08 L1268.83 1256.51 L1572.41 1055.36 L1875.99 904.33 L2179.57 719.38 L2483.16 575.10 L2786.74 577.63 L3090.32 898.93 L3393.90 1131.81 L3697.48 1568.03 L4001.06 1937.42 L4304.48 2229.02 L965.42 2197.80 L1268.83 2172.15 L1572.41 1996.31 L1875.99 1947.54 L2179.57 1838.53 L2483.16 1673.83 L2786.74 1755.00 L3090.32 1658.14 L3393.90 1669.61 L3697.48 1588.28 L4001.06 1564.99 L4304.48 1596.71 L965.42 1528.37 L1268.83 1535.79 L1572.41 1456.99 L1875.99 1435.56 L2179.57 1624.56 L2483.16 1601.10 L2786.74 1585.24 L3090.32 1551.83 L3393.90 1587.09 L3697.48 1533.26 L4001.06 1449.90 L4304.48 1360.29 L965.42 1357.43 L1268.83 1369.58 L1572.41 1134.17 L1875.99 926.78 L2179.57 1046.93 L2483.16 1145.14 L2786.74 1145.47 L3090.32 1321.14 L3393.90 1319.96 L3697.48 1322.16 L4001.06 1173.15 L4304.48 1190.36 L965.42 1185.97 L1268.83 1189.18 L1572.41 1263.09 L1875.99 1271.53 L2179.57 1290.43 L2483.16 1447.71 L2786.74 1453.11 L3090.32 1296.84 L3393.90 1212.97 L3697.48 1228.33 L4001.06 1285.03 L4304.48 1312.54 L965.42 1180.24 L1268.83 1183.95 L1572.41 1202.18 L1875.99 1221.41 L2179.57 1206.22 L2483.16 1232.04 L2786.74 1073.25 L3090.32 1053.00 L3393.90 1077.13 L3697.48 1186.31 L4001.06 1345.11 L4304.48 1272.04 L965.42 1311.19 L1268.83 1160.83 L1572.41 1169.44 L1875.99 1149.36 L2179.57 1139.74 L2483.16 1084.39 L2786.74 1146.99 L3090.32 1228.16 L3393.90 1298.70 L3697.48 1429.31 L4001.06 1569.71 L4304.48 1850.01 L965.42 2067.36 L1268.83 2003.91 L1572.41 2046.43 L1875.99 1924.09 L2179.57 1840.39 L2483.16 1801.41 L2786.74 1938.77 L3090.32 2098.41 L3393.90 2063.14 L3697.48 2029.56 L4001.06 2076.47 L4304.48 2182.11 L965.42 2280.32 L1268.83 2315.08 L1572.41 2187.51 L1875.99 2117.31 L2179.57 2034.79 L2483.16 1979.10 L2786.74 2032.93 L3090.32 2050.48 L3393.90 2047.61 L3697.48 1952.78 L4001.06 2031.41 L4304.48 1936.91 L965.42 1927.63 L1268.83 1887.64 L1572.41 1952.27 L1875.99 1931.85 L2179.57 1957.84 L2483.16 2015.55 L2786.74 1990.91 L3090.32 1954.80 L3393.90 1925.44 L3697.48 1859.63 L4001.06 1766.48 L4304.48 1750.78 L965.42 1661.85 L1268.83 1696.95 L1572.41 1708.26 L1875.99 1649.70 L2179.57 1595.36 L2483.16 1640.76 L2786.74 1559.76 L3090.32 1602.28 L3393.90 1577.98 L3697.48 1571.57 L4001.06 1837.86 L4304.48 2075.12 L965.42 1950.75 L1268.83 1829.08 L1572.41 1777.44 L1875.99 1671.81 L2179.57 1735.59 L2483.16 1839.04 L2786.74 1796.51 L3090.32 1848.32 L3393.90 1827.56 L3697.48 1893.38 L4001.06 1836.68 L4304.48 1760.57 L965.42 1797.36 L1268.83 1922.40 L1572.41 2216.03 L1875.99 2498.51 L2179.57 2393.55 L2483.16 2093.18 L2786.74 2079.51 L3090.32 2064.99 L3393.90 2103.64 L3697.48 2109.21 L4001.06 2076.47 L4304.48 1966.11 L965.42 1923.08 L1268.83 1806.64 L1572.41 1738.46 L1875.99 1729.52 L2179.57 1682.61 L2483.16 1582.03 L2786.74 1560.77 L3090.32 1627.76 L3393.90 1574.61 L3697.48 1427.12 L4001.06 1454.46 L4304.48 1559.76 L965.42 1387.13 L1268.83 1229.18 L1572.41 935.55 L1875.99 1014.69 L2179.57 927.28 L2483.16 823.16 L2786.74 1055.03 L3090.32 1174.67 L3393.90 1335.15 L3697.48 1282.33 L4001.06 1321.48 L4304.48 1473.86 L965.42 1461.71 L1268.83 1478.93 L1572.41 1523.64 L1875.99 1433.19 L2179.57 1570.05 L2483.16 1594.01 L2786.74 1498.84 L3090.32 1408.73 L3393.90 1271.87 L3697.48 1339.03 L4001.06 1476.73 L4304.48 1596.04 L965.42 1573.26 L1268.83 1524.66 L1572.41 1450.58 L1875.99 1373.79 L2179.57 1471.67 L2483.16 1486.01 L2786.74 1444.16 L3090.32 1513.35 L3393.90 1615.44 L3697.48 1574.27 L4001.06 1615.95 L4304.48 1626.08 L965.42 1544.57 L1268.83 1606.84 L1572.41 1662.19 L1875.99 1746.90 L2179.57 1775.25 L2483.16 1667.93 L2786.74 1643.63 L3090.32 1699.31 L3393.90 1726.65 L3697.48 1786.56" stroke-linejoin="round" style="fill:none;stroke:#1A85FF;stroke-width:9.72"/>
	<line x1="590.63" y1="2766.66" x2="590.63" y2="113.40" style="stroke:#000000;stroke-width:6.48"/>
	<line x1="590.63" y1="2695.28" x2="545.57" y2="2695.28" style="stroke:#000000;stroke-width:6.48"/>
	<text x="523.13" y="2734.71" style="font-family:'Helvetica';font-size:112.56px;fill:#000000" text-anchor="end">0</text>
	<line x1="590.63" y1="1858.44" x2="545.57" y2="1858.44" style="stroke:#000000;stroke-width:6.48"/>
	<text x="523.13" y="1897.88" style="font-family:'Helvetica';font-size:112.56px;fill:#000000" text-anchor="end">50</text>
	<line x1="590.63" y1="1021.61" x2="545.57" y2="1021.61" style="stroke:#000000;stroke-width:6.48"/>
	<text x="523.13" y="1061.05" style="font-family:'Helvetica';font-size:112.56px;fill:#000000" text-anchor="end">100</text>
	<line x1="590.63" y1="184.61" x2="545.57" y2="184.61" style="stroke:#000000;stroke-width:6.48"/>
	<text x="523.13" y="224.05" style="font-family:'Helvetica';font-size:112.56px;fill:#000000" text-anchor="end">150</text>
	<text x="214.55" y="1439.94" style="font-family:'Helvetica';font-size:112.56px;fill:#000000" transform="rotate(-90 214.55,1439.94)" text-anchor="middle">ndfpp</text>
	<line x1="590.63" y1="2766.66" x2="5286.60" y2="2766.66" style="stroke:#000000;stroke-width:6.48"/>
	<line x1="661.84" y1="2766.66" x2="661.84" y2="2811.54" style="stroke:#000000;stroke-width:6.48"/>
	<text x="661.84" y="2912.86" style="font-family:'Helvetica';font-size:112.56px;fill:#000000" text-anchor="middle">0</text>
	<line x1="2179.74" y1="2766.66" x2="2179.74" y2="2811.54" style="stroke:#000000;stroke-width:6.48"/>
	<text x="2179.74" y="2912.86" style="font-family:'Helvetica';font-size:112.56px;fill:#000000" text-anchor="middle">5</text>
	<line x1="3697.48" y1="2766.66" x2="3697.48" y2="2811.54" style="stroke:#000000;stroke-width:6.48"/>
	<text x="3697.48" y="2912.86" style="font-family:'Helvetica';font-size:112.56px;fill:#000000" text-anchor="middle">10</text>
	<line x1="5215.39" y1="2766.66" x2="5215.39" y2="2811.54" style="stroke:#000000;stroke-width:6.48"/>
	<text x="5215.39" y="2912.86" style="font-family:'Helvetica';font-size:112.56px;fill:#000000" text-anchor="middle">15</text>
	<text x="2938.61" y="3070.31" style="font-family:'Helvetica';font-size:112.56px;fill:#000000" text-anchor="middle">month</text>
</svg>
